<svg viewBox="0 0 24 23" xmlns="http://www.w3.org/2000/svg">
  <path d="M24 12.336a.992.992 0 0 0-.086-.387l-2.747-6.181a.252.252 0 0 1 .149-.339A1 1 0 0 0 21 3.48h-7.75a.25.25 0 0 1-.25-.25V1a1 1 0 0 0-2 0v2.23a.251.251 0 0 1-.25.25H3a1 1 0 0 0-.316 1.949.249.249 0 0 1 .149.339L.087 11.95a.991.991 0 0 0-.087.386v.019a4.5 4.5 0 1 0 9 0 1.144 1.144 0 0 0-.1-.405L6.192 5.831a.25.25 0 0 1 .228-.351h4.33a.25.25 0 0 1 .25.25v14.52a.25.25 0 0 1-.25.25H9.081a1 1 0 0 0 0 2h5.811a1 1 0 0 0 0-2H13.25a.25.25 0 0 1-.25-.25V5.73a.25.25 0 0 1 .25-.25h4.33a.25.25 0 0 1 .228.351L15.1 11.95a1.143 1.143 0 0 0-.1.405 4.5 4.5 0 1 0 9 0v-.019Zm-21.187-.731a.25.25 0 0 1-.228-.355l1.684-3.789a.25.25 0 0 1 .457 0l1.68 3.789a.25.25 0 0 1-.228.351l-3.365.004Zm15.009 0a.25.25 0 0 1-.228-.355l1.68-3.792a.25.25 0 0 1 .457 0l1.684 3.792a.25.25 0 0 1-.228.351l-3.365.004Z"/>
</svg>