<svg viewBox="0 0 16 16" xmlns="http://www.w3.org/2000/svg">
  <path d="M11.4592 4.78062C11.4592 6.59595 9.98186 8.0726 8.16653 8.0726C6.35118 8.0726 4.87451 6.59595 4.87451 4.78062C4.87451 2.96462 6.35118 1.48795 8.16653 1.48795C9.98186 1.48795 11.4592 2.96462 11.4592 4.78062ZM8.1845 9.55807C10.6825 9.55807 12.5025 10.7854 13.1798 12.9274L13.2585 13.1767L13.0358 13.3127C11.7118 14.1194 10.1292 14.5121 8.1985 14.5121H8.13516C6.2312 14.5121 4.6032 14.1087 3.29786 13.3127L3.0752 13.1767L3.15386 12.9274C3.83253 10.7801 5.66186 9.54407 8.1665 9.55807H8.1845Z" fill="white"/>
</svg>
